<svg width="162" height="48" viewBox="0 0 162 48" fill="none" xmlns="http://www.w3.org/2000/svg">
<g id="app-store">
<path id="Vector" d="M156.322 48H5.67829C2.54097 48 0 45.46 0 42.324V5.67603C0 2.53996 2.54097 0 5.67829 0H156.322C159.459 0 162 2.53996 162 5.67603V42.324C162 45.46 159.459 48 156.322 48Z" fill="#424551"/>
<path id="Vector_2" d="M160.937 42.3238C160.937 44.8638 158.888 46.9113 156.347 46.9113H5.7041C3.16313 46.9113 1.08887 44.8638 1.08887 42.3238V5.67589C1.08887 3.13593 3.16313 1.0625 5.7041 1.0625H156.347C158.888 1.0625 160.963 3.11002 160.963 5.67589L160.937 42.3238Z" fill="#424551"/>
<path id="Vector_3" d="M36.1653 23.7408C36.1394 19.879 39.3281 17.987 39.4837 17.9093C37.669 15.2657 34.8691 14.9028 33.858 14.8769C31.4989 14.6177 29.2175 16.3024 27.999 16.3024C26.7805 16.3024 24.914 14.9028 22.9177 14.9546C20.3512 15.0065 17.9402 16.4838 16.618 18.7905C13.8959 23.5076 15.918 30.4276 18.5365 34.2117C19.8327 36.0777 21.3623 38.1512 23.3585 38.0734C25.3028 37.9957 26.0287 36.8294 28.3879 36.8294C30.7211 36.8294 31.3952 38.0734 33.4432 38.0216C35.5431 37.9957 36.8653 36.1555 38.1097 34.2635C39.6133 32.1382 40.2096 30.013 40.2355 29.9093C40.2355 29.9093 36.2172 28.3801 36.1653 23.7408ZM32.3284 12.3628C33.3654 11.041 34.0913 9.27861 33.8839 7.46436C32.3544 7.54211 30.4619 8.52699 29.373 9.79697C28.4138 10.9374 27.5324 12.7775 27.7657 14.514C29.4767 14.6436 31.2396 13.6587 32.3284 12.3628Z" fill="white"/>
<path id="Vector_4" d="M156.322 0H75.6328L107.239 48H156.322C159.459 48 162 45.46 162 42.324V5.67603C162 2.53996 159.459 0 156.322 0Z" fill="url(#paint0_linear_926_1333)"/>
<path id="Vector_5" d="M64.432 37.8141H61.7095L60.2057 33.123H55.02L53.594 37.8141H50.9493L56.0831 21.8487H59.2723L64.432 37.8141ZM59.7649 31.1532L58.4166 26.9805C58.2611 26.5658 58.0018 25.555 57.6128 23.974H57.561C57.4054 24.6478 57.1461 25.6586 56.8091 26.9805L55.4867 31.1532H59.7649ZM77.6295 31.9049C77.6295 33.8746 77.085 35.4038 76.0219 36.5442C75.0626 37.555 73.8958 38.0733 72.4698 38.0733C70.94 38.0733 69.851 37.5291 69.1769 36.4405V42.4794H66.6359V30.0647C66.6359 28.8465 66.61 27.5766 66.5322 26.2807H68.7879L68.9435 28.0949H68.9954C69.851 26.7213 71.1474 26.0215 72.8846 26.0215C74.2329 26.0215 75.3737 26.5658 76.2812 27.6284C77.1887 28.7429 77.6295 30.1684 77.6295 31.9049ZM75.0367 32.0085C75.0367 30.8941 74.7774 29.961 74.2847 29.2353C73.7402 28.4837 72.9883 28.0949 72.0549 28.0949C71.4326 28.0949 70.8622 28.3023 70.3436 28.717C69.8251 29.1316 69.488 29.6759 69.3324 30.3757C69.2547 30.6349 69.2287 30.8941 69.2028 31.1532V33.0712C69.2028 33.9005 69.4621 34.6262 69.9806 35.1964C70.4992 35.7666 71.1733 36.0517 71.9771 36.0517C72.9365 36.0517 73.6884 35.6889 74.2329 34.9373C74.7774 34.2116 75.0367 33.2267 75.0367 32.0085ZM90.9048 31.9049C90.9048 33.8746 90.3603 35.4038 89.2972 36.5442C88.3379 37.555 87.1711 38.0733 85.745 38.0733C84.2153 38.0733 83.1263 37.5291 82.4522 36.4405V42.4794H79.8853V30.0647C79.8853 28.8465 79.8593 27.5766 79.7815 26.2807H82.0373L82.1929 28.0949H82.2447C83.1004 26.7213 84.3968 26.0215 86.134 26.0215C87.4822 26.0215 88.6231 26.5658 89.5306 27.6284C90.4381 28.7429 90.9048 30.1684 90.9048 31.9049ZM88.286 32.0085C88.286 30.8941 88.0267 29.961 87.5341 29.2353C86.9896 28.4837 86.2377 28.0949 85.3043 28.0949C84.682 28.0949 84.1116 28.3023 83.593 28.717C83.0744 29.1316 82.7374 29.6759 82.5818 30.3757C82.504 30.6867 82.4522 30.9459 82.4522 31.1532V33.0712C82.4522 33.9005 82.7114 34.6262 83.23 35.1964C83.7486 35.7666 84.4227 36.0517 85.2265 36.0517C86.1858 36.0517 86.9377 35.6889 87.4822 34.9373C88.0267 34.2116 88.286 33.2267 88.286 32.0085ZM105.71 33.3303C105.71 34.6781 105.243 35.7925 104.284 36.6478C103.247 37.5809 101.795 38.0474 99.9278 38.0474C98.2166 38.0474 96.8424 37.7105 95.7793 37.0625L96.3756 34.9373C97.4906 35.6111 98.7351 35.9221 100.083 35.9221C101.043 35.9221 101.795 35.7148 102.339 35.2742C102.884 34.8336 103.143 34.2634 103.143 33.5377C103.143 32.8897 102.91 32.3455 102.469 31.9049C102.028 31.4643 101.302 31.0496 100.265 30.6608C97.4646 29.6241 96.0645 28.0949 96.0645 26.0733C96.0645 24.7515 96.5571 23.6889 97.5424 22.8595C98.5277 22.0301 99.85 21.6154 101.458 21.6154C102.91 21.6154 104.128 21.8746 105.088 22.3671L104.439 24.4405C103.532 23.9481 102.521 23.7148 101.38 23.7148C100.472 23.7148 99.7722 23.9481 99.2537 24.3887C98.8388 24.7774 98.6055 25.2699 98.6055 25.8401C98.6055 26.4621 98.8388 27.0064 99.3315 27.3951C99.7463 27.7839 100.524 28.1727 101.665 28.6392C103.039 29.1835 104.05 29.8314 104.699 30.583C105.399 31.3088 105.71 32.2159 105.71 33.3303ZM114.188 28.2245H111.362V33.8228C111.362 35.2483 111.855 35.9481 112.866 35.9481C113.333 35.9481 113.696 35.9221 114.007 35.8185L114.085 37.7623C113.592 37.9437 112.918 38.0474 112.088 38.0474C111.077 38.0474 110.299 37.7364 109.729 37.1144C109.158 36.4923 108.873 35.4556 108.873 34.0042V28.1986H107.188V26.2807H108.873V24.1813L111.388 23.4297V26.3066H114.214L114.188 28.2245ZM126.893 31.9567C126.893 33.7191 126.375 35.1705 125.363 36.3109C124.3 37.4772 122.9 38.0733 121.137 38.0733C119.452 38.0733 118.104 37.5031 117.092 36.3887C116.081 35.2742 115.589 33.8487 115.589 32.1381C115.589 30.3498 116.107 28.8984 117.144 27.758C118.181 26.6176 119.581 26.0474 121.319 26.0474C123.004 26.0474 124.378 26.6176 125.389 27.7321C126.401 28.8206 126.893 30.2461 126.893 31.9567ZM124.249 32.0085C124.249 30.9459 124.015 30.0388 123.574 29.2872C123.03 28.38 122.278 27.9135 121.267 27.9135C120.23 27.9135 119.452 28.38 118.907 29.2872C118.441 30.0388 118.233 30.9718 118.233 32.0604C118.233 33.123 118.467 34.0301 118.907 34.7818C119.452 35.6889 120.23 36.1554 121.241 36.1554C122.226 36.1554 122.978 35.6889 123.548 34.7558C124.015 33.9783 124.249 33.0712 124.249 32.0085ZM135.216 28.5355C134.957 28.4837 134.672 28.4578 134.412 28.4578C133.505 28.4578 132.805 28.7947 132.338 29.4686C131.923 30.0647 131.69 30.8163 131.69 31.7494V37.7882H129.123V29.9092C129.123 28.691 129.097 27.4988 129.045 26.2807H131.275L131.379 28.4837H131.457C131.716 27.7321 132.157 27.11 132.727 26.6694C133.272 26.2807 133.92 26.0474 134.568 26.0474C134.801 26.0474 135.009 26.0733 135.216 26.0992V28.5355ZM146.677 31.5161C146.677 31.9049 146.651 32.2936 146.573 32.6824H138.898C138.924 33.8228 139.287 34.704 140.013 35.3001C140.661 35.8444 141.491 36.1036 142.528 36.1036C143.669 36.1036 144.706 35.9221 145.639 35.5593L146.028 37.3217C144.939 37.7882 143.643 38.0215 142.165 38.0215C140.376 38.0215 138.976 37.5031 137.965 36.4405C136.953 35.3779 136.435 33.9783 136.435 32.2159C136.435 30.4794 136.902 29.028 137.861 27.8876C138.846 26.6435 140.194 26.0474 141.88 26.0474C143.539 26.0474 144.81 26.6694 145.639 27.8876C146.339 28.8725 146.677 30.0647 146.677 31.5161ZM144.239 30.8422C144.265 30.0906 144.084 29.4167 143.747 28.8725C143.306 28.1468 142.632 27.8098 141.698 27.8098C140.869 27.8098 140.169 28.1468 139.65 28.8465C139.235 29.3908 138.976 30.0647 138.898 30.8422H144.239ZM54.294 16.1986C53.594 16.1986 52.9717 16.1727 52.4531 16.0949V8.37139C53.1791 8.26771 53.9051 8.21588 54.6311 8.21588C57.561 8.21588 58.9093 9.66728 58.9093 12.0258C58.9093 14.7213 57.3017 16.1986 54.294 16.1986ZM54.7089 9.20076C54.32 9.20076 53.9829 9.22668 53.6977 9.27851V15.136C53.8533 15.1619 54.1385 15.1619 54.5533 15.1619C56.472 15.1619 57.561 14.0733 57.561 12.0258C57.561 10.2116 56.5757 9.20076 54.7089 9.20076ZM63.1096 16.2504C61.4502 16.2504 60.3872 15.0064 60.3872 13.3476C60.3872 11.6111 61.4762 10.3671 63.2134 10.3671C64.8468 10.3671 65.9358 11.5334 65.9358 13.2699C65.9358 15.0064 64.795 16.2504 63.1096 16.2504ZM63.1615 11.2742C62.254 11.2742 61.6577 12.1295 61.6577 13.3217C61.6577 14.488 62.254 15.3433 63.1356 15.3433C64.0171 15.3433 64.6135 14.4362 64.6135 13.2958C64.6394 12.1295 64.0431 11.2742 63.1615 11.2742ZM75.3737 10.4707L73.6106 16.1208H72.4438L71.7178 13.6586C71.5363 13.0625 71.3808 12.4405 71.2511 11.8185H71.2252C71.1215 12.4405 70.9659 13.0625 70.7585 13.6586L69.9806 16.1208H68.8139L67.1545 10.4707H68.4509L69.0991 13.1662C69.2547 13.8142 69.3843 14.4103 69.488 14.9805H69.5139C69.6177 14.5139 69.7473 13.9178 69.9806 13.1662L70.7844 10.4707H71.8216L72.5994 13.1144C72.7809 13.7623 72.9365 14.3843 73.0661 14.9805H73.092C73.1698 14.4103 73.2995 13.7882 73.481 13.1144L74.181 10.4707H75.3737ZM81.8817 16.1208H80.6372V12.8811C80.6372 11.8703 80.2483 11.3779 79.4963 11.3779C78.7444 11.3779 78.2258 12.0258 78.2258 12.7515V16.1208H76.9554V12.0776C76.9554 11.5852 76.9554 11.0409 76.9035 10.4707H78.0184L78.0703 11.3519H78.0962C78.4333 10.7558 79.1333 10.3671 79.8853 10.3671C81.078 10.3671 81.8558 11.2742 81.8558 12.7515L81.8817 16.1208ZM85.3561 16.1208H84.0856V7.85303H85.3561V16.1208ZM89.9454 16.2504C88.286 16.2504 87.223 15.0064 87.223 13.3476C87.223 11.6111 88.3119 10.3671 90.0491 10.3671C91.6826 10.3671 92.7716 11.5334 92.7716 13.2699C92.7716 15.0064 91.6308 16.2504 89.9454 16.2504ZM89.9973 11.2742C89.0898 11.2742 88.4934 12.1295 88.4934 13.3217C88.4934 14.488 89.0898 15.3433 89.9714 15.3433C90.8529 15.3433 91.4493 14.4362 91.4493 13.2958C91.4493 12.1295 90.8789 11.2742 89.9973 11.2742ZM97.7239 16.1208L97.6202 15.4729H97.5943C97.2053 15.9913 96.6609 16.2504 95.9349 16.2504C94.9237 16.2504 94.1977 15.5507 94.1977 14.5917C94.1977 13.1921 95.4163 12.4664 97.5165 12.4664V12.3627C97.5165 11.6111 97.1276 11.2483 96.3497 11.2483C95.7793 11.2483 95.3126 11.3779 94.8718 11.663L94.6125 10.8336C95.1311 10.4967 95.7793 10.3411 96.5571 10.3411C98.0351 10.3411 98.787 11.1187 98.787 12.6738V14.7472C98.787 15.3174 98.8129 15.758 98.8648 16.0949L97.7239 16.1208ZM97.5424 13.2958C96.1423 13.2958 95.4422 13.6327 95.4422 14.4362C95.4422 15.0323 95.8052 15.3174 96.2979 15.3174C96.9461 15.3174 97.5424 14.825 97.5424 14.177V13.2958ZM104.88 16.1208L104.828 15.2137H104.802C104.439 15.8876 103.843 16.2504 102.987 16.2504C101.613 16.2504 100.602 15.0582 100.602 13.3735C100.602 11.6111 101.639 10.3671 103.091 10.3671C103.843 10.3671 104.387 10.6262 104.699 11.1446H104.725V7.85303H105.995V14.5917C105.995 15.136 106.021 15.6543 106.047 16.1208H104.88ZM104.699 12.8034C104.699 11.9999 104.18 11.326 103.376 11.326C102.443 11.326 101.872 12.1554 101.872 13.3217C101.872 14.4621 102.469 15.2396 103.35 15.2396C104.154 15.2396 104.699 14.5399 104.699 13.7364V12.8034ZM113.955 16.2504C112.296 16.2504 111.233 15.0064 111.233 13.3476C111.233 11.6111 112.322 10.3671 114.059 10.3671C115.692 10.3671 116.781 11.5334 116.781 13.2699C116.781 15.0064 115.64 16.2504 113.955 16.2504ZM114.007 11.2742C113.099 11.2742 112.529 12.1295 112.529 13.3217C112.529 14.488 113.125 15.3433 114.007 15.3433C114.888 15.3433 115.485 14.4362 115.485 13.2958C115.459 12.1295 114.888 11.2742 114.007 11.2742ZM123.548 16.1208H122.278V12.8811C122.278 11.8703 121.889 11.3779 121.137 11.3779C120.385 11.3779 119.893 12.0258 119.893 12.7515V16.1208H118.622V12.0776C118.622 11.5852 118.622 11.0409 118.57 10.4707H119.685L119.737 11.3519H119.763C120.1 10.7558 120.8 10.3671 121.552 10.3671C122.745 10.3671 123.523 11.2742 123.523 12.7515V16.1208H123.548ZM132.001 11.4038H130.627V14.1511C130.627 14.8509 130.86 15.1878 131.353 15.1878C131.586 15.1878 131.768 15.1619 131.923 15.136L131.949 16.0949C131.716 16.1986 131.379 16.2245 130.964 16.2245C129.979 16.2245 129.382 15.6802 129.382 14.2548V11.4038H128.553V10.4707H129.382V9.43402L130.627 9.07117V10.4707H132.001V11.4038ZM138.665 16.1208H137.42V12.907C137.42 11.8962 137.031 11.3779 136.279 11.3779C135.631 11.3779 135.009 11.8185 135.009 12.7256V16.1468H133.764V7.85303H135.009V11.2483H135.035C135.424 10.6262 135.994 10.3152 136.746 10.3152C137.939 10.3152 138.665 11.2483 138.665 12.7256V16.1208ZM145.484 13.6068H141.698C141.724 14.6694 142.424 15.2915 143.487 15.2915C144.058 15.2915 144.55 15.1878 145.017 15.0323L145.225 15.9135C144.68 16.1468 144.058 16.2504 143.332 16.2504C141.569 16.2504 140.506 15.136 140.506 13.3995C140.506 11.663 141.569 10.3671 143.176 10.3671C144.628 10.3671 145.536 11.4297 145.536 13.0625C145.536 13.218 145.536 13.3995 145.484 13.6068ZM144.343 12.6997C144.343 11.8185 143.902 11.1964 143.098 11.1964C142.372 11.1964 141.802 11.8185 141.724 12.6997H144.343Z" fill="white"/>
</g>
<defs>
<linearGradient id="paint0_linear_926_1333" x1="118.823" y1="48.1132" x2="118.823" y2="-644.442" gradientUnits="userSpaceOnUse">
<stop stop-color="#1A1A1A" stop-opacity="0.1"/>
<stop offset="0.123" stop-color="#212121" stop-opacity="0.151"/>
<stop offset="0.308" stop-color="#353535" stop-opacity="0.227"/>
<stop offset="0.532" stop-color="#575757" stop-opacity="0.318"/>
<stop offset="0.783" stop-color="#858585" stop-opacity="0.421"/>
<stop offset="1" stop-color="#B3B3B3" stop-opacity="0.51"/>
</linearGradient>
</defs>
</svg>
