<svg width="20" height="20" viewBox="0 0 20 20" fill="none" xmlns="http://www.w3.org/2000/svg">
<g id="bag">
<path id="Vector (Stroke)" fill-rule="evenodd" clip-rule="evenodd" d="M5.00001 2.70841C4.07954 2.70841 3.33334 3.45461 3.33334 4.37508L3.33334 15.6251C3.33334 16.5456 4.07953 17.2917 5.00001 17.2917H15C15.9205 17.2917 16.6667 16.5456 16.6667 15.6251V4.37509C16.6667 3.45462 15.9205 2.70843 15 2.70843L5.00001 2.70841ZM1.66668 4.37508C1.66668 2.53413 3.15906 1.04174 5.00001 1.04175L15 1.04176C16.841 1.04176 18.3333 2.53415 18.3333 4.37509V15.6251C18.3333 17.466 16.841 18.9584 15 18.9584H5.00001C3.15906 18.9584 1.66667 17.466 1.66667 15.6251L1.66668 4.37508ZM13.75 4.16673C14.2102 4.16673 14.5833 4.53982 14.5833 5.00006L14.5833 6.25006C14.5833 8.78137 12.5313 10.8334 10 10.8334C7.4687 10.8334 5.41667 8.78137 5.41667 6.25006V5.00006C5.41667 4.53982 5.78977 4.16673 6.25001 4.16673C6.71024 4.16673 7.08334 4.53982 7.08334 5.00006V6.25006C7.08334 7.86089 8.38918 9.16673 10 9.16673C11.6108 9.16673 12.9167 7.86089 12.9167 6.25006L12.9167 5.00006C12.9167 4.53982 13.2898 4.16673 13.75 4.16673Z" fill="#424551"/>
</g>
</svg>
