<svg width="20" height="20" viewBox="0 0 20 20" fill="none" xmlns="http://www.w3.org/2000/svg">
<g id="delete">
<path id="Vector (Stroke)" fill-rule="evenodd" clip-rule="evenodd" d="M6.04169 3.12508C6.04169 1.97449 6.97443 1.04175 8.12502 1.04175H11.875C13.0256 1.04175 13.9584 1.97449 13.9584 3.12508V3.54175H18.125C18.5853 3.54175 18.9584 3.91484 18.9584 4.37508C18.9584 4.83532 18.5853 5.20842 18.125 5.20842H17.0834V15.6251C17.0834 17.466 15.591 18.9584 13.75 18.9584H6.25002C4.40907 18.9584 2.91669 17.466 2.91669 15.6251V5.20842H1.87502C1.41478 5.20842 1.04169 4.83532 1.04169 4.37508C1.04169 3.91484 1.41478 3.54175 1.87502 3.54175H6.04169V3.12508ZM7.70835 3.54175H12.2917V3.12508C12.2917 2.89496 12.1051 2.70841 11.875 2.70841H8.12502C7.8949 2.70841 7.70835 2.89496 7.70835 3.12508V3.54175ZM4.58335 5.20842V15.6251C4.58335 16.5456 5.32955 17.2917 6.25002 17.2917H13.75C14.6705 17.2917 15.4167 16.5456 15.4167 15.6251V5.20842H4.58335ZM10 6.66675C10.4603 6.66675 10.8334 7.03984 10.8334 7.50008L10.8334 15.0001C10.8334 15.4603 10.4603 15.8334 10 15.8334C9.53978 15.8334 9.16669 15.4603 9.16669 15.0001L9.16669 7.50008C9.16669 7.03984 9.53978 6.66675 10 6.66675Z" fill="#FF4242"/>
</g>
</svg>
