<svg width="16" height="17" viewBox="0 0 16 17" fill="none" xmlns="http://www.w3.org/2000/svg">
<g id="dislike">
<path id="shape (Stroke)" fill-rule="evenodd" clip-rule="evenodd" d="M6.56581 14.3334C6.65883 14.3334 6.74504 14.284 6.79208 14.2034L6.79618 14.1963L9.85368 9.23958L9.85368 2.66675L4.1298 2.66675C4.00698 2.66675 3.90076 2.75201 3.87415 2.87175L3.87184 2.88215L2.17186 9.52188C2.14071 9.68282 2.26405 9.83341 2.42902 9.83341L5.02035 9.83341C5.45446 9.83341 5.89374 9.97845 6.21355 10.2906C6.54976 10.6187 6.70563 11.0887 6.6056 11.595L6.12637 14.0207C6.09437 14.1827 6.21832 14.3334 6.38326 14.3334L6.56581 14.3334ZM11.187 2.66675L11.187 8.76199L13.5493 8.76199C13.6931 8.76199 13.8101 8.64597 13.8112 8.50201C13.8112 8.50202 13.8112 8.50201 13.8112 8.50201L13.8537 2.9306C13.8548 2.78531 13.7372 2.66675 13.5918 2.66675L11.187 2.66675ZM10.8924 10.0953L7.93896 14.8834C7.65208 15.3685 7.13019 15.6667 6.56581 15.6667L6.38326 15.6667C5.37812 15.6667 4.62351 14.7484 4.81832 13.7623L5.29755 11.3366C5.30608 11.2934 5.30055 11.2738 5.29922 11.2695C5.29774 11.2647 5.29449 11.2567 5.28225 11.2448C5.25437 11.2176 5.17133 11.1667 5.02035 11.1667L2.42902 11.1667C1.40837 11.1667 0.650407 10.2215 0.871792 9.22534L0.874102 9.21494L2.57524 2.57069C2.74178 1.84696 3.38625 1.33341 4.1298 1.33341L13.5918 1.33341C14.4775 1.33341 15.1938 2.05503 15.187 2.94076C15.187 2.94074 15.187 2.94078 15.187 2.94076L15.1445 8.51219C15.1378 9.38838 14.4257 10.0953 13.5493 10.0953L10.8924 10.0953Z" fill="#FF4242"/>
</g>
</svg>
