<svg width="14" height="14" viewBox="0 0 14 14" fill="none" xmlns="http://www.w3.org/2000/svg">
<g id="Star/outline">
<path id="Star (Stroke)" fill-rule="evenodd" clip-rule="evenodd" d="M5.93211 1.28419C6.33738 0.349606 7.66276 0.349605 8.06803 1.28419L9.29397 4.11132L12.3616 4.40363C13.3756 4.50026 13.7852 5.76076 13.0216 6.435L10.7117 8.47457L11.3816 11.4824C11.6031 12.4767 10.5308 13.2557 9.65362 12.7378L7.00007 11.1712L4.34652 12.7378C3.46932 13.2557 2.39706 12.4767 2.61853 11.4824L3.28847 8.47457L0.978546 6.435C0.214937 5.76076 0.6245 4.50026 1.63858 4.40363L4.70617 4.11132L5.93211 1.28419ZM8.22601 4.57442L7.00007 1.74729L5.77413 4.57442C5.60546 4.96339 5.23865 5.2299 4.81659 5.27011L1.749 5.56242L4.05892 7.60199C4.37673 7.8826 4.51684 8.31382 4.42467 8.72764L3.75473 11.7354L6.40828 10.1688C6.77337 9.95328 7.22677 9.95328 7.59186 10.1688L10.2454 11.7354L9.57547 8.72764C9.4833 8.31382 9.62341 7.8826 9.94122 7.60199L12.2511 5.56242L9.18355 5.27011C8.76149 5.2299 8.39468 4.96339 8.22601 4.57442Z" fill="#B3B7BC"/>
</g>
</svg>
