<svg width="20" height="20" viewBox="0 0 20 20" fill="none" xmlns="http://www.w3.org/2000/svg">
<g id="Eye">
<g id="Eyes">
<g id="Union">
<path d="M2.20045 7.09822C4.45388 5.21822 7.04812 4.16667 9.79161 4.16667C12.5351 4.16667 15.1293 5.21822 17.3828 7.09822C17.7362 7.39305 18.2617 7.34558 18.5565 6.99218C18.8513 6.63878 18.8039 6.11328 18.4505 5.81845C15.9447 3.72796 12.9828 2.5 9.79161 2.5C6.6004 2.5 3.63849 3.72796 1.13276 5.81845C0.779361 6.11328 0.731886 6.63878 1.02672 6.99218C1.32155 7.34558 1.84705 7.39305 2.20045 7.09822Z" fill="white"/>
<path fill-rule="evenodd" clip-rule="evenodd" d="M3.41724 8.07419C4.91601 6.80886 7.05362 5.625 9.47908 5.625C11.9046 5.625 14.0422 6.80886 15.5409 8.07419C16.2965 8.71204 16.9159 9.39204 17.3537 9.99941C17.5721 10.3025 17.7543 10.5999 17.8854 10.8756C18.0059 11.1289 18.1249 11.4486 18.1249 11.7708C18.1249 12.0931 18.0059 12.4127 17.8854 12.666C17.7543 12.9418 17.5721 13.2392 17.3537 13.5423C16.9159 14.1496 16.2965 14.8296 15.5409 15.4675C14.0422 16.7328 11.9046 17.9167 9.47908 17.9167C7.05362 17.9167 4.91601 16.7328 3.41724 15.4675C2.66171 14.8296 2.04225 14.1496 1.60449 13.5423C1.38605 13.2392 1.20386 12.9418 1.07273 12.666C0.952286 12.4127 0.833252 12.0931 0.833252 11.7708C0.833252 11.4486 0.952286 11.1289 1.07273 10.8756C1.20386 10.5999 1.38605 10.3025 1.60449 9.99941C2.04225 9.39204 2.66171 8.71204 3.41724 8.07419ZM2.50583 11.7708C2.51426 11.7991 2.53371 11.8574 2.57788 11.9503C2.65489 12.1122 2.77968 12.3223 2.95657 12.5677C3.30948 13.0574 3.83414 13.6382 4.49239 14.194C5.82119 15.3158 7.58983 16.25 9.47908 16.25C11.3683 16.25 13.137 15.3158 14.4658 14.194C15.124 13.6382 15.6487 13.0574 16.0016 12.5677C16.1785 12.3223 16.3033 12.1122 16.3803 11.9503C16.4245 11.8574 16.4439 11.799 16.4523 11.7708C16.4439 11.7426 16.4245 11.6843 16.3803 11.5914C16.3033 11.4295 16.1785 11.2193 16.0016 10.9739C15.6487 10.4843 15.124 9.90343 14.4658 9.3477C14.1863 9.11173 13.8873 8.88407 13.5719 8.67166C13.6877 9.05945 13.7499 9.47038 13.7499 9.89583C13.7499 12.2545 11.8378 14.1667 9.47908 14.1667C7.12037 14.1667 5.20825 12.2545 5.20825 9.89583C5.20825 9.47038 5.27046 9.05945 5.38629 8.67166C5.07084 8.88407 4.77189 9.11174 4.49239 9.3477C3.83414 9.90343 3.30948 10.4843 2.95657 10.9739C2.77968 11.2193 2.65489 11.4295 2.57788 11.5914C2.53371 11.6843 2.51426 11.7426 2.50583 11.7708ZM6.87492 9.89583C6.87492 8.45759 8.04084 7.29167 9.47908 7.29167C10.9173 7.29167 12.0833 8.45759 12.0833 9.89583C12.0833 11.3341 10.9173 12.5 9.47908 12.5C8.04084 12.5 6.87492 11.3341 6.87492 9.89583Z" fill="white"/>
</g>
</g>
</g>
</svg>
