<svg width="20" height="20" viewBox="0 0 20 20" fill="none" xmlns="http://www.w3.org/2000/svg">
<g id="Eye">
<g id="Eyes">
<g id="Union">
<path d="M2.20051 7.09822C4.45394 5.21822 7.04818 4.16667 9.79167 4.16667C12.5352 4.16667 15.1294 5.21822 17.3828 7.09822C17.7362 7.39305 18.2617 7.34558 18.5566 6.99218C18.8514 6.63878 18.8039 6.11328 18.4505 5.81845C15.9448 3.72796 12.9829 2.5 9.79167 2.5C6.60046 2.5 3.63855 3.72796 1.13282 5.81845C0.779423 6.11328 0.731947 6.63878 1.02678 6.99218C1.32162 7.34558 1.84711 7.39305 2.20051 7.09822Z" fill="#424551"/>
<path fill-rule="evenodd" clip-rule="evenodd" d="M3.4173 8.07419C4.91607 6.80886 7.05368 5.625 9.47915 5.625C11.9046 5.625 14.0422 6.80886 15.541 8.07419C16.2965 8.71204 16.916 9.39204 17.3537 9.99941C17.5722 10.3025 17.7544 10.5999 17.8855 10.8756C18.0059 11.1289 18.125 11.4486 18.125 11.7708C18.125 12.0931 18.0059 12.4127 17.8855 12.666C17.7544 12.9418 17.5722 13.2392 17.3537 13.5423C16.916 14.1496 16.2965 14.8296 15.541 15.4675C14.0422 16.7328 11.9046 17.9167 9.47915 17.9167C7.05368 17.9167 4.91607 16.7328 3.4173 15.4675C2.66177 14.8296 2.04231 14.1496 1.60455 13.5423C1.38611 13.2392 1.20393 12.9418 1.0728 12.666C0.952347 12.4127 0.833313 12.0931 0.833313 11.7708C0.833313 11.4486 0.952347 11.1289 1.0728 10.8756C1.20393 10.5999 1.38611 10.3025 1.60455 9.99941C2.04231 9.39204 2.66177 8.71204 3.4173 8.07419ZM2.50589 11.7708C2.51432 11.7991 2.53377 11.8574 2.57794 11.9503C2.65495 12.1122 2.77974 12.3223 2.95663 12.5677C3.30954 13.0574 3.8342 13.6382 4.49245 14.194C5.82125 15.3158 7.58989 16.25 9.47915 16.25C11.3684 16.25 13.137 15.3158 14.4658 14.194C15.1241 13.6382 15.6488 13.0574 16.0017 12.5677C16.1786 12.3223 16.3033 12.1122 16.3804 11.9503C16.4245 11.8574 16.444 11.799 16.4524 11.7708C16.444 11.7426 16.4245 11.6843 16.3804 11.5914C16.3033 11.4295 16.1786 11.2193 16.0017 10.9739C15.6488 10.4843 15.1241 9.90343 14.4658 9.3477C14.1863 9.11173 13.8874 8.88407 13.5719 8.67166C13.6878 9.05945 13.75 9.47038 13.75 9.89583C13.75 12.2545 11.8379 14.1667 9.47915 14.1667C7.12043 14.1667 5.20831 12.2545 5.20831 9.89583C5.20831 9.47038 5.27052 9.05945 5.38635 8.67166C5.0709 8.88407 4.77195 9.11174 4.49245 9.3477C3.8342 9.90343 3.30954 10.4843 2.95663 10.9739C2.77974 11.2193 2.65495 11.4295 2.57794 11.5914C2.53377 11.6843 2.51432 11.7426 2.50589 11.7708ZM6.87498 9.89583C6.87498 8.45759 8.0409 7.29167 9.47915 7.29167C10.9174 7.29167 12.0833 8.45759 12.0833 9.89583C12.0833 11.3341 10.9174 12.5 9.47915 12.5C8.0409 12.5 6.87498 11.3341 6.87498 9.89583Z" fill="#424551"/>
</g>
</g>
</g>
</svg>
