<svg width="16" height="16" viewBox="0 0 16 16" fill="none" xmlns="http://www.w3.org/2000/svg">
<g id="Facebook">
<path id="Vector" d="M11.7086 0.669556L9.85713 0.666504C7.77703 0.666504 6.43277 2.08323 6.43277 4.27599V5.94021H4.57116C4.4103 5.94021 4.28003 6.07417 4.28003 6.23942V8.65068C4.28003 8.81592 4.41044 8.94974 4.57116 8.94974H6.43277V15.0341C6.43277 15.1994 6.56304 15.3332 6.7239 15.3332H9.15277C9.31364 15.3332 9.4439 15.1992 9.4439 15.0341V8.94974H11.6206C11.7814 8.94974 11.9117 8.81592 11.9117 8.65068L11.9126 6.23942C11.9126 6.16008 11.8818 6.08409 11.8273 6.02794C11.7728 5.97179 11.6985 5.94021 11.6213 5.94021H9.4439V4.52943C9.4439 3.85135 9.6012 3.50713 10.4611 3.50713L11.7083 3.50667C11.8691 3.50667 11.9993 3.3727 11.9993 3.20761V0.968617C11.9993 0.803675 11.8692 0.669861 11.7086 0.669556Z" fill="white"/>
</g>
</svg>
