<svg width="20" height="12" viewBox="0 0 20 12" fill="none" xmlns="http://www.w3.org/2000/svg">
<g clip-path="url(#clip0_916_312)">
<path d="M20 0H0V12H20V0Z" fill="#B22234"/>
<path fill-rule="evenodd" clip-rule="evenodd" d="M20 1.74575H0V0.800293H20V1.74575ZM0 2.6912H20V3.63666H0V2.6912ZM20 5.52757H0V4.58211H20V5.52757ZM0 6.47302H20V7.41847H0V6.47302ZM20 9.30938H0V8.36393H20V9.30938ZM0 10.2548H20V11.2003H0V10.2548Z" fill="white"/>
<path d="M9.12 0H0V6.46154H9.12V0Z" fill="#3C3B6E"/>
<path d="M0.759607 0.221436L0.976635 0.88938L0.408447 0.476568H1.11077L0.542578 0.88938L0.759607 0.221436Z" fill="white"/>
<path d="M2.27425 0.221436L2.49127 0.88938L1.92309 0.476568H2.6254L2.05722 0.88938L2.27425 0.221436Z" fill="white"/>
<path d="M3.78888 0.221436L4.00591 0.88938L3.43773 0.476568H4.14004L3.57186 0.88938L3.78888 0.221436Z" fill="white"/>
<path d="M8.3328 0.221436L8.54983 0.88938L7.98164 0.476568H8.68396L8.11577 0.88938L8.3328 0.221436Z" fill="white"/>
<path d="M6.81816 0.221436L7.03519 0.88938L6.467 0.476568H7.16932L6.60113 0.88938L6.81816 0.221436Z" fill="white"/>
<path d="M5.30352 0.221436L5.52055 0.88938L4.95236 0.476568H5.65468L5.0865 0.88938L5.30352 0.221436Z" fill="white"/>
<path d="M0.759607 1.55734L0.976635 2.22528L0.408447 1.81247H1.11077L0.542578 2.22528L0.759607 1.55734Z" fill="white"/>
<path d="M2.27425 1.55734L2.49127 2.22528L1.92309 1.81247H2.6254L2.05722 2.22528L2.27425 1.55734Z" fill="white"/>
<path d="M3.78888 1.55734L4.00591 2.22528L3.43773 1.81247H4.14004L3.57186 2.22528L3.78888 1.55734Z" fill="white"/>
<path d="M8.3328 1.55734L8.54983 2.22528L7.98164 1.81247H8.68396L8.11577 2.22528L8.3328 1.55734Z" fill="white"/>
<path d="M6.81816 1.55734L7.03519 2.22528L6.467 1.81247H7.16932L6.60113 2.22528L6.81816 1.55734Z" fill="white"/>
<path d="M5.30352 1.55734L5.52055 2.22528L4.95236 1.81247H5.65468L5.0865 2.22528L5.30352 1.55734Z" fill="white"/>
<path d="M0.759607 2.89324L0.976635 3.56118L0.408447 3.14837H1.11077L0.542578 3.56118L0.759607 2.89324Z" fill="white"/>
<path d="M2.27425 2.89324L2.49127 3.56118L1.92309 3.14837H2.6254L2.05722 3.56118L2.27425 2.89324Z" fill="white"/>
<path d="M3.78888 2.89324L4.00591 3.56118L3.43773 3.14837H4.14004L3.57186 3.56118L3.78888 2.89324Z" fill="white"/>
<path d="M8.3328 2.89324L8.54983 3.56118L7.98164 3.14837H8.68396L8.11577 3.56118L8.3328 2.89324Z" fill="white"/>
<path d="M6.81816 2.89324L7.03519 3.56118L6.467 3.14837H7.16932L6.60113 3.56118L6.81816 2.89324Z" fill="white"/>
<path d="M5.30352 2.89324L5.52055 3.56118L4.95236 3.14837H5.65468L5.0865 3.56118L5.30352 2.89324Z" fill="white"/>
<path d="M0.759607 4.22914L0.976635 4.89708L0.408447 4.48427H1.11077L0.542578 4.89708L0.759607 4.22914Z" fill="white"/>
<path d="M2.27425 4.22914L2.49127 4.89708L1.92309 4.48427H2.6254L2.05722 4.89708L2.27425 4.22914Z" fill="white"/>
<path d="M3.78888 4.22914L4.00591 4.89708L3.43773 4.48427H4.14004L3.57186 4.89708L3.78888 4.22914Z" fill="white"/>
<path d="M8.3328 4.22914L8.54983 4.89708L7.98164 4.48427H8.68396L8.11577 4.89708L8.3328 4.22914Z" fill="white"/>
<path d="M6.81816 4.22914L7.03519 4.89708L6.467 4.48427H7.16932L6.60113 4.89708L6.81816 4.22914Z" fill="white"/>
<path d="M5.30352 4.22914L5.52055 4.89708L4.95236 4.48427H5.65468L5.0865 4.89708L5.30352 4.22914Z" fill="white"/>
<path d="M0.759607 5.56504L0.976635 6.23299L0.408447 5.82017H1.11077L0.542578 6.23299L0.759607 5.56504Z" fill="white"/>
<path d="M2.27425 5.56504L2.49127 6.23299L1.92309 5.82017H2.6254L2.05722 6.23299L2.27425 5.56504Z" fill="white"/>
<path d="M3.78888 5.56504L4.00591 6.23299L3.43773 5.82017H4.14004L3.57186 6.23299L3.78888 5.56504Z" fill="white"/>
<path d="M8.3328 5.56504L8.54983 6.23299L7.98164 5.82017H8.68396L8.11577 6.23299L8.3328 5.56504Z" fill="white"/>
<path d="M6.81816 5.56504L7.03519 6.23299L6.467 5.82017H7.16932L6.60113 6.23299L6.81816 5.56504Z" fill="white"/>
<path d="M5.30352 5.56504L5.52055 6.23299L4.95236 5.82017H5.65468L5.0865 6.23299L5.30352 5.56504Z" fill="white"/>
<path d="M1.51383 0.889386L1.73085 1.55733L1.16267 1.14452H1.86498L1.2968 1.55733L1.51383 0.889386Z" fill="white"/>
<path d="M3.02846 0.889386L3.24549 1.55733L2.6773 1.14452H3.37962L2.81144 1.55733L3.02846 0.889386Z" fill="white"/>
<path d="M4.5431 0.889386L4.76013 1.55733L4.19194 1.14452H4.89426L4.32608 1.55733L4.5431 0.889386Z" fill="white"/>
<path d="M7.57238 0.889386L7.78941 1.55733L7.22122 1.14452H7.92354L7.35535 1.55733L7.57238 0.889386Z" fill="white"/>
<path d="M6.05774 0.889386L6.27477 1.55733L5.70658 1.14452H6.4089L5.84071 1.55733L6.05774 0.889386Z" fill="white"/>
<path d="M1.51383 2.22529L1.73085 2.89323L1.16267 2.48042H1.86498L1.2968 2.89323L1.51383 2.22529Z" fill="white"/>
<path d="M3.02846 2.22529L3.24549 2.89323L2.6773 2.48042H3.37962L2.81144 2.89323L3.02846 2.22529Z" fill="white"/>
<path d="M4.5431 2.22529L4.76013 2.89323L4.19194 2.48042H4.89426L4.32608 2.89323L4.5431 2.22529Z" fill="white"/>
<path d="M7.57238 2.22529L7.78941 2.89323L7.22122 2.48042H7.92354L7.35535 2.89323L7.57238 2.22529Z" fill="white"/>
<path d="M6.05774 2.22529L6.27477 2.89323L5.70658 2.48042H6.4089L5.84071 2.89323L6.05774 2.22529Z" fill="white"/>
<path d="M1.51383 3.56119L1.73085 4.22913L1.16267 3.81632H1.86498L1.2968 4.22913L1.51383 3.56119Z" fill="white"/>
<path d="M3.02846 3.56119L3.24549 4.22913L2.6773 3.81632H3.37962L2.81144 4.22913L3.02846 3.56119Z" fill="white"/>
<path d="M4.5431 3.56119L4.76013 4.22913L4.19194 3.81632H4.89426L4.32608 4.22913L4.5431 3.56119Z" fill="white"/>
<path d="M7.57238 3.56119L7.78941 4.22913L7.22122 3.81632H7.92354L7.35535 4.22913L7.57238 3.56119Z" fill="white"/>
<path d="M6.05774 3.56119L6.27477 4.22913L5.70658 3.81632H6.4089L5.84071 4.22913L6.05774 3.56119Z" fill="white"/>
<path d="M1.51383 4.89709L1.73085 5.56503L1.16267 5.15222H1.86498L1.2968 5.56503L1.51383 4.89709Z" fill="white"/>
<path d="M3.02846 4.89709L3.24549 5.56503L2.6773 5.15222H3.37962L2.81144 5.56503L3.02846 4.89709Z" fill="white"/>
<path d="M4.5431 4.89709L4.76013 5.56503L4.19194 5.15222H4.89426L4.32608 5.56503L4.5431 4.89709Z" fill="white"/>
<path d="M7.57238 4.89709L7.78941 5.56503L7.22122 5.15222H7.92354L7.35535 5.56503L7.57238 4.89709Z" fill="white"/>
<path d="M6.05774 4.89709L6.27477 5.56503L5.70658 5.15222H6.4089L5.84071 5.56503L6.05774 4.89709Z" fill="white"/>
</g>
<defs>
<clipPath id="clip0_916_312">
<rect width="20" height="12" fill="white"/>
</clipPath>
</defs>
</svg>
