<svg width="162" height="48" viewBox="0 0 162 48" fill="none" xmlns="http://www.w3.org/2000/svg">
<g id="google-play" clip-path="url(#clip0_926_1339)">
<path id="Vector" d="M156 47.9915H6C2.64 47.9915 0 45.3524 0 41.9936V6.0062C0 2.64738 2.64 0.00830078 6 0.00830078H156C159.36 0.00830078 162 2.64738 162 6.0062V41.9936C162 45.3524 159.36 47.9915 156 47.9915Z" fill="#424551"/>
<path id="Vector_2" d="M156 0.967965C158.76 0.967965 161.04 3.24717 161.04 6.0062V41.9936C161.04 44.7526 158.76 47.0318 156 47.0318H6C3.24 47.0318 0.96 44.7526 0.96 41.9936V6.0062C0.96 3.24717 3.24 0.967965 6 0.967965H156ZM156 0.00830078H6C2.64 0.00830078 0 2.76734 0 6.0062V41.9936C0 45.3524 2.64 47.9915 6 47.9915H156C159.36 47.9915 162 45.3524 162 41.9936V6.0062C162 2.76734 159.36 0.00830078 156 0.00830078Z" fill="#424551"/>
<path id="Vector_3" d="M56.8802 12.2443C56.8802 13.2039 56.6402 14.0436 56.0402 14.6434C55.3202 15.3632 54.4802 15.723 53.4002 15.723C52.3202 15.723 51.4802 15.3632 50.7602 14.6434C50.0402 13.9237 49.6802 13.084 49.6802 12.0043C49.6802 10.9247 50.0402 10.085 50.7602 9.36527C51.4802 8.64552 52.3202 8.28564 53.4002 8.28564C53.8802 8.28564 54.3602 8.4056 54.8402 8.64552C55.3202 8.88543 55.6802 9.12535 55.9202 9.48522L55.3202 10.085C54.8402 9.48522 54.2402 9.24531 53.4002 9.24531C52.6802 9.24531 51.9602 9.48522 51.4802 10.085C50.8802 10.5648 50.6402 11.2846 50.6402 12.1243C50.6402 12.964 50.8802 13.6838 51.4802 14.1636C52.0802 14.6434 52.6802 15.0033 53.4002 15.0033C54.2402 15.0033 54.8402 14.7634 55.4402 14.1636C55.8002 13.8037 56.0402 13.3239 56.0402 12.7241H53.4002V11.7644H56.8802V12.2443ZM62.4002 9.24531H59.1602V11.5245H62.1602V12.3642H59.1602V14.6434H62.4002V15.6031H58.2002V8.4056H62.4002V9.24531ZM66.3602 15.6031H65.4002V9.24531H63.3602V8.4056H68.4002V9.24531H66.3602V15.6031ZM71.8802 15.6031V8.4056H72.8402V15.6031H71.8802ZM76.9202 15.6031H75.9602V9.24531H73.9202V8.4056H78.8402V9.24531H76.8002V15.6031H76.9202ZM88.3202 14.6434C87.6002 15.3632 86.7602 15.723 85.6802 15.723C84.6002 15.723 83.7602 15.3632 83.0402 14.6434C82.3202 13.9237 81.9602 13.084 81.9602 12.0043C81.9602 10.9247 82.3202 10.085 83.0402 9.36527C83.7602 8.64552 84.6002 8.28564 85.6802 8.28564C86.7602 8.28564 87.6002 8.64552 88.3202 9.36527C89.0402 10.085 89.4002 10.9247 89.4002 12.0043C89.4002 13.084 89.0402 13.9237 88.3202 14.6434ZM83.7602 14.0436C84.2402 14.5235 84.9602 14.8833 85.6802 14.8833C86.4002 14.8833 87.1202 14.6434 87.6002 14.0436C88.0802 13.5638 88.4402 12.844 88.4402 12.0043C88.4402 11.1646 88.2002 10.4449 87.6002 9.96506C87.1202 9.48522 86.4002 9.12535 85.6802 9.12535C84.9602 9.12535 84.2402 9.36527 83.7602 9.96506C83.2802 10.4449 82.9202 11.1646 82.9202 12.0043C82.9202 12.844 83.1602 13.5638 83.7602 14.0436ZM90.7202 15.6031V8.4056H91.8002L95.2802 14.0436V8.4056H96.2402V15.6031H95.2802L91.5602 9.72514V15.6031H90.7202Z" fill="white"/>
<path id="Vector_4" d="M81.7199 26.1595C78.8399 26.1595 76.5599 28.3188 76.5599 31.3177C76.5599 34.1967 78.8399 36.4759 81.7199 36.4759C84.5999 36.4759 86.8799 34.3167 86.8799 31.3177C86.8799 28.1988 84.5999 26.1595 81.7199 26.1595ZM81.7199 34.3167C80.1599 34.3167 78.8399 32.9971 78.8399 31.1977C78.8399 29.3984 80.1599 28.0788 81.7199 28.0788C83.2799 28.0788 84.5999 29.2784 84.5999 31.1977C84.5999 32.9971 83.2799 34.3167 81.7199 34.3167ZM70.5599 26.1595C67.6798 26.1595 65.3998 28.3188 65.3998 31.3177C65.3998 34.1967 67.6798 36.4759 70.5599 36.4759C73.4399 36.4759 75.7199 34.3167 75.7199 31.3177C75.7199 28.1988 73.4399 26.1595 70.5599 26.1595ZM70.5599 34.3167C68.9998 34.3167 67.6798 32.9971 67.6798 31.1977C67.6798 29.3984 68.9998 28.0788 70.5599 28.0788C72.1199 28.0788 73.4399 29.2784 73.4399 31.1977C73.4399 32.9971 72.1199 34.3167 70.5599 34.3167ZM57.2398 27.719V29.8782H62.3998C62.2798 31.0778 61.7998 32.0375 61.1998 32.6372C60.4798 33.357 59.2798 34.1967 57.2398 34.1967C53.9998 34.1967 51.5998 31.6776 51.5998 28.4387C51.5998 25.1998 54.1198 22.6807 57.2398 22.6807C58.9198 22.6807 60.2398 23.4005 61.1998 24.2402L62.7598 22.6807C61.4398 21.4811 59.7598 20.5215 57.3598 20.5215C53.0398 20.5215 49.3198 24.1202 49.3198 28.4387C49.3198 32.7572 53.0398 36.3559 57.3598 36.3559C59.7598 36.3559 61.4398 35.6362 62.8798 34.0767C64.3198 32.6372 64.7998 30.598 64.7998 29.0385C64.7998 28.5587 64.7998 28.0788 64.6798 27.719H57.2398ZM111.72 29.3984C111.24 28.1988 110.04 26.1595 107.4 26.1595C104.76 26.1595 102.6 28.1988 102.6 31.3177C102.6 34.1967 104.76 36.4759 107.64 36.4759C109.92 36.4759 111.36 35.0364 111.84 34.1967L110.16 32.9971C109.56 33.8368 108.84 34.4366 107.64 34.4366C106.44 34.4366 105.72 33.9568 105.12 32.8772L111.96 29.9982L111.72 29.3984ZM104.76 31.0778C104.76 29.1585 106.32 28.0788 107.4 28.0788C108.24 28.0788 109.08 28.5587 109.32 29.1585L104.76 31.0778ZM99.1199 35.9961H101.4V21.0013H99.1199V35.9961ZM95.5199 27.2391C94.9199 26.6393 93.9599 26.0396 92.7599 26.0396C90.2399 26.0396 87.8399 28.3188 87.8399 31.1977C87.8399 34.0767 90.1199 36.236 92.7599 36.236C93.9599 36.236 94.9199 35.6362 95.3999 35.0364H95.5199V35.7562C95.5199 37.6755 94.4399 38.7551 92.7599 38.7551C91.4399 38.7551 90.4799 37.7954 90.2399 36.9557L88.3199 37.7954C88.9199 39.115 90.3599 40.7944 92.8799 40.7944C95.5199 40.7944 97.6799 39.2349 97.6799 35.5162V26.3994H95.5199V27.2391ZM92.8799 34.3167C91.3199 34.3167 89.9999 32.9971 89.9999 31.1977C89.9999 29.3984 91.3199 28.0788 92.8799 28.0788C94.4399 28.0788 95.6399 29.3984 95.6399 31.1977C95.6399 32.9971 94.4399 34.3167 92.8799 34.3167ZM122.16 21.0013H116.76V35.9961H119.04V30.358H122.16C124.68 30.358 127.08 28.5587 127.08 25.6797C127.08 22.8007 124.68 21.0013 122.16 21.0013ZM122.28 28.1988H119.04V23.0406H122.28C123.96 23.0406 124.92 24.4801 124.92 25.5597C124.8 26.8793 123.84 28.1988 122.28 28.1988ZM136.08 26.0396C134.4 26.0396 132.72 26.7593 132.12 28.3188L134.16 29.1585C134.64 28.3188 135.36 28.0788 136.2 28.0788C137.4 28.0788 138.48 28.7986 138.6 29.9982V30.1181C138.24 29.8782 137.28 29.5183 136.32 29.5183C134.16 29.5183 132 30.7179 132 32.8772C132 34.9164 133.8 36.236 135.72 36.236C137.28 36.236 138 35.5162 138.6 34.7965H138.72V35.9961H140.88V30.2381C140.64 27.599 138.6 26.0396 136.08 26.0396ZM135.84 34.3167C135.12 34.3167 134.04 33.9568 134.04 32.9971C134.04 31.7975 135.36 31.4377 136.44 31.4377C137.4 31.4377 137.88 31.6776 138.48 31.9175C138.24 33.357 137.04 34.3167 135.84 34.3167ZM148.44 26.3994L145.92 32.8772H145.8L143.16 26.3994H140.76L144.72 35.5162L142.44 40.5545H144.72L150.84 26.3994H148.44ZM128.28 35.9961H130.56V21.0013H128.28V35.9961Z" fill="white"/>
<g id="Group">
<path id="Vector_5" d="M12.4801 9.00537C12.1201 9.36525 12.0001 9.96503 12.0001 10.6848V37.1955C12.0001 37.9153 12.2401 38.515 12.6001 38.8749L12.7201 38.9949L27.6001 24.1201V23.8802L12.4801 9.00537Z" fill="url(#paint0_linear_926_1339)"/>
<path id="Vector_6" d="M32.4004 29.1584L27.4803 24.2401V23.8802L32.4004 18.9619L32.5204 19.0819L38.4004 22.4407C40.0804 23.4004 40.0804 24.9598 38.4004 25.9195L32.4004 29.1584Z" fill="url(#paint1_linear_926_1339)"/>
<path id="Vector_7" d="M32.5201 29.0382L27.4801 24L12.4801 38.9948C13.0801 39.5946 13.9201 39.5946 15.0001 39.1147L32.5201 29.0382Z" fill="url(#paint2_linear_926_1339)"/>
<path id="Vector_8" d="M32.5201 18.9617L15.0001 9.00517C13.9201 8.40538 13.0801 8.52534 12.4801 9.12513L27.4801 23.9999L32.5201 18.9617Z" fill="url(#paint3_linear_926_1339)"/>
<path id="Vector_9" opacity="0.2" d="M32.4001 28.9185L15.0001 38.755C14.0401 39.3548 13.2001 39.2348 12.6001 38.755L12.4801 38.875L12.6001 38.9949C13.2001 39.4747 14.0401 39.5947 15.0001 38.9949L32.4001 28.9185Z" fill="#424551"/>
<path id="Vector_10" opacity="0.2" d="M12.4801 38.7548C12.1201 38.395 12.0001 37.7952 12.0001 37.0754V37.1954C12.0001 37.9151 12.2401 38.5149 12.6001 38.8748V38.7548H12.4801ZM38.4001 25.5595L32.4001 28.9183L32.5201 29.0382L38.4001 25.6794C39.2401 25.1996 39.6001 24.5998 39.6001 24C39.6001 24.5998 39.1201 25.0796 38.4001 25.5595Z" fill="#424551"/>
<path id="Vector_11" opacity="0.2" d="M15.0001 9.12521L38.4001 22.4406C39.1201 22.9204 39.6001 23.4002 39.6001 24C39.6001 23.4002 39.2401 22.8004 38.4001 22.3206L15.0001 9.00525C13.3201 8.04559 12.0001 8.76534 12.0001 10.6847V10.8046C12.0001 9.00525 13.3201 8.16555 15.0001 9.12521Z" fill="white"/>
</g>
</g>
<defs>
<linearGradient id="paint0_linear_926_1339" x1="26.1601" y1="10.4569" x2="6.02756" y2="30.5952" gradientUnits="userSpaceOnUse">
<stop stop-color="#00A0FF"/>
<stop offset="0.007" stop-color="#00A1FF"/>
<stop offset="0.26" stop-color="#00BEFF"/>
<stop offset="0.512" stop-color="#00D2FF"/>
<stop offset="0.76" stop-color="#00DFFF"/>
<stop offset="1" stop-color="#00E3FF"/>
</linearGradient>
<linearGradient id="paint1_linear_926_1339" x1="40.6012" y1="24.0014" x2="11.5647" y2="24.0014" gradientUnits="userSpaceOnUse">
<stop stop-color="#FFE000"/>
<stop offset="0.409" stop-color="#FFBD00"/>
<stop offset="0.775" stop-color="#FFA500"/>
<stop offset="1" stop-color="#FF9C00"/>
</linearGradient>
<linearGradient id="paint2_linear_926_1339" x1="29.7925" y1="26.7542" x2="2.49242" y2="54.0639" gradientUnits="userSpaceOnUse">
<stop stop-color="#FF3A44"/>
<stop offset="1" stop-color="#C31162"/>
</linearGradient>
<linearGradient id="paint3_linear_926_1339" x1="8.7565" y1="0.219448" x2="20.9478" y2="12.4151" gradientUnits="userSpaceOnUse">
<stop stop-color="#32A071"/>
<stop offset="0.069" stop-color="#2DA771"/>
<stop offset="0.476" stop-color="#15CF74"/>
<stop offset="0.801" stop-color="#06E775"/>
<stop offset="1" stop-color="#00F076"/>
</linearGradient>
<clipPath id="clip0_926_1339">
<rect width="162" height="48" fill="white"/>
</clipPath>
</defs>
</svg>
