<svg width="20" height="20" viewBox="0 0 20 20" fill="none" xmlns="http://www.w3.org/2000/svg">
<path fill-rule="evenodd" clip-rule="evenodd" d="M9.99943 16.5898C6.16688 14.407 4.02934 12.2374 2.9957 10.355C1.93777 8.42834 2.03007 6.80561 2.61712 5.65391C3.82376 3.28663 7.2551 2.52965 9.34574 5.1738L9.99938 6.00051L10.6531 5.17384C12.7441 2.52958 16.1756 3.28669 17.3822 5.6539C17.9693 6.80559 18.0615 8.42831 17.0035 10.355C15.9698 12.2374 13.8322 14.407 9.99943 16.5898ZM9.99946 3.42206C7.05845 0.627386 2.7198 1.78242 1.13223 4.89703C0.260941 6.60637 0.249039 8.81564 1.53478 11.1572C2.80911 13.478 5.34987 15.9276 9.59631 18.2747L9.99942 18.4975L10.4025 18.2747C14.6491 15.9276 17.19 13.478 18.4644 11.1572C19.7503 8.81566 19.7384 6.60638 18.8671 4.89703C17.2795 1.78236 12.9407 0.627429 9.99946 3.42206Z" fill="#424551"/>
</svg>
