<svg width="20" height="20" viewBox="0 0 20 20" fill="none" xmlns="http://www.w3.org/2000/svg">
<g id="Heart/outline">
<path id="Vector (Stroke)" fill-rule="evenodd" clip-rule="evenodd" d="M9.99956 16.5898C6.167 14.407 4.02946 12.2374 2.99582 10.355C1.93789 8.42834 2.0302 6.80561 2.61724 5.65391C3.82389 3.28663 7.25522 2.52965 9.34586 5.1738L9.99951 6.00051L10.6532 5.17384C12.7442 2.52958 16.1757 3.28669 17.3823 5.6539C17.9694 6.80559 18.0617 8.42831 17.0037 10.355C15.9699 12.2374 13.8323 14.407 9.99956 16.5898ZM9.99959 3.42206C7.05858 0.627386 2.71992 1.78242 1.13235 4.89703C0.261063 6.60637 0.249161 8.81564 1.5349 11.1572C2.80924 13.478 5.34999 15.9276 9.59643 18.2747L9.99954 18.4975L10.4027 18.2747C14.6493 15.9276 17.1901 13.478 18.4645 11.1572C19.7504 8.81566 19.7385 6.60638 18.8672 4.89703C17.2796 1.78236 12.9408 0.627429 9.99959 3.42206Z" fill="white"/>
</g>
</svg>
