<svg width="16" height="16" viewBox="0 0 16 16" fill="none" xmlns="http://www.w3.org/2000/svg">
<g id="Instagram">
<g id="Vector">
<path d="M14.6536 5.25353C14.6224 4.54508 14.5078 4.05803 14.3437 3.63599C14.1744 3.188 13.9139 2.78693 13.5727 2.45351C13.2392 2.1149 12.8355 1.85179 12.3927 1.68513C11.9682 1.52101 11.4837 1.40645 10.7753 1.37521C10.0615 1.34133 9.83496 1.3335 8.02471 1.3335C6.21446 1.3335 5.98788 1.34133 5.27678 1.37257C4.56833 1.4038 4.08128 1.51847 3.65934 1.68248C3.21126 1.85179 2.81018 2.11225 2.47676 2.45351C2.13815 2.78693 1.87514 3.19065 1.70838 3.63344C1.54427 4.05803 1.4297 4.54244 1.39847 5.25089C1.36458 5.96463 1.35675 6.19122 1.35675 8.00146C1.35675 9.81171 1.36458 10.0383 1.39582 10.7494C1.42706 11.4578 1.54172 11.9449 1.70584 12.3669C1.87514 12.8149 2.13815 13.216 2.47676 13.5494C2.81018 13.888 3.2139 14.1511 3.6567 14.3178C4.08128 14.4819 4.56569 14.5965 5.27424 14.6277C5.98523 14.6591 6.21192 14.6668 8.02217 14.6668C9.83241 14.6668 10.059 14.6591 10.7701 14.6277C11.4785 14.5965 11.9656 14.4819 12.3875 14.3178C13.2836 13.9714 13.9921 13.2629 14.3385 12.3669C14.5025 11.9424 14.6172 11.4578 14.6484 10.7494C14.6796 10.0383 14.6875 9.81171 14.6875 8.00146C14.6875 6.19122 14.6848 5.96463 14.6536 5.25353ZM13.4529 10.6973C13.4242 11.3485 13.3148 11.7001 13.2237 11.9345C12.9996 12.5154 12.5386 12.9764 11.9578 13.2004C11.7233 13.2916 11.3692 13.401 10.7205 13.4296C10.0173 13.4609 9.80637 13.4686 8.02736 13.4686C6.24834 13.4686 6.03478 13.4609 5.33406 13.4296C4.6829 13.401 4.33127 13.2916 4.09684 13.2004C3.80779 13.0936 3.54467 12.9243 3.33111 12.7029C3.10971 12.4867 2.94041 12.2262 2.83358 11.9372C2.74242 11.7027 2.63304 11.3485 2.60445 10.6999C2.57311 9.99669 2.56538 9.78567 2.56538 8.00665C2.56538 6.22764 2.57311 6.01408 2.60445 5.31346C2.63304 4.66229 2.74242 4.31066 2.83358 4.07624C2.94041 3.78708 3.10971 3.52407 3.33376 3.3104C3.54986 3.08901 3.81033 2.9197 4.09949 2.81297C4.33391 2.72181 4.68819 2.61243 5.33671 2.58374C6.03997 2.5525 6.25099 2.54467 8.0299 2.54467C9.81156 2.54467 10.0225 2.5525 10.7232 2.58374C11.3744 2.61243 11.726 2.72181 11.9604 2.81297C12.2495 2.9197 12.5126 3.08901 12.7261 3.3104C12.9475 3.52661 13.1168 3.78708 13.2237 4.07624C13.3148 4.31066 13.4242 4.66483 13.4529 5.31346C13.4841 6.01672 13.492 6.22764 13.492 8.00665C13.492 9.78567 13.4841 9.99404 13.4529 10.6973Z" fill="white"/>
<path d="M8.02471 4.57632C6.13377 4.57632 4.59956 6.11043 4.59956 8.00147C4.59956 9.89251 6.13377 11.4266 8.02471 11.4266C9.91574 11.4266 11.4499 9.89251 11.4499 8.00147C11.4499 6.11043 9.91574 4.57632 8.02471 4.57632ZM8.02471 10.2233C6.79797 10.2233 5.8029 9.22831 5.8029 8.00147C5.8029 6.77462 6.79797 5.77966 8.02471 5.77966C9.25155 5.77966 10.2465 6.77462 10.2465 8.00147C10.2465 9.22831 9.25155 10.2233 8.02471 10.2233Z" fill="white"/>
<path d="M12.385 4.4409C12.385 4.88247 12.027 5.24051 11.5853 5.24051C11.1437 5.24051 10.7857 4.88247 10.7857 4.4409C10.7857 3.99922 11.1437 3.64128 11.5853 3.64128C12.027 3.64128 12.385 3.99922 12.385 4.4409Z" fill="white"/>
</g>
</g>
</svg>
