<svg width="20" height="20" viewBox="0 0 20 20" fill="none" xmlns="http://www.w3.org/2000/svg">
<g id="Logout">
<g id="Union">
<path d="M13.75 17.2917C14.2102 17.2917 14.5833 17.6648 14.5833 18.1251C14.5833 18.5853 14.2102 18.9584 13.75 18.9584H5.20833C2.90715 18.9584 1.04167 17.0929 1.04167 14.7917V5.20841C1.04167 2.90723 2.90715 1.04175 5.20833 1.04175H13.75C14.2102 1.04175 14.5833 1.41484 14.5833 1.87508C14.5833 2.33532 14.2102 2.70841 13.75 2.70841L5.20833 2.70841C3.82762 2.70841 2.70833 3.8277 2.70833 5.20841V14.7917C2.70833 16.1725 3.82762 17.2917 5.20833 17.2917H13.75Z" fill="#424551"/>
<path d="M4.79167 10.0001C4.79167 10.2211 4.87946 10.4331 5.03575 10.5893L8.78575 14.3393C9.11118 14.6648 9.63882 14.6648 9.96426 14.3393C10.2897 14.0139 10.2897 13.4863 9.96426 13.1608L7.63685 10.8334L18.125 10.8334C18.5852 10.8334 18.9583 10.4603 18.9583 10.0001C18.9583 9.53984 18.5852 9.16675 18.125 9.16675L7.63685 9.16675L9.96426 6.83934C10.2897 6.5139 10.2897 5.98626 9.96426 5.66083C9.63882 5.33539 9.11118 5.33539 8.78575 5.66083L5.03575 9.41083C4.87946 9.56711 4.79167 9.77907 4.79167 10.0001Z" fill="#424551"/>
</g>
</g>
</svg>
