<svg width="16" height="16" viewBox="0 0 16 16" fill="none" xmlns="http://www.w3.org/2000/svg">
<g id="pinterest">
<path id="Vector" d="M8.20093 0.666504C4.15211 0.667115 2 3.24298 2 6.05169C2 7.35399 2.73296 8.97895 3.90656 9.49413C4.24135 9.64385 4.19704 9.46113 4.48505 8.36722C4.50782 8.27617 4.49613 8.19733 4.42228 8.11239C2.74465 6.18553 4.09488 2.22425 7.96154 2.22425C13.5575 2.22425 12.5119 9.91336 8.93512 9.91336C8.01323 9.91336 7.32643 9.19468 7.54367 8.3055C7.80707 7.24643 8.32279 6.10791 8.32279 5.34463C8.32279 3.42082 5.43648 3.70621 5.43648 6.25519C5.43648 7.04293 5.71711 7.5746 5.71711 7.5746C5.71711 7.5746 4.78845 11.3 4.61613 11.9961C4.32443 13.1743 4.65552 15.0816 4.68445 15.246C4.70229 15.3364 4.80445 15.3652 4.86169 15.2906C4.95338 15.1714 6.0759 13.5813 6.39038 12.4318C6.50485 12.0132 6.97441 10.3143 6.97441 10.3143C7.28396 10.8691 8.17632 11.3336 9.12713 11.3336C11.9556 11.3336 14 8.86468 14 5.80113C13.9902 2.86409 11.4589 0.666504 8.20093 0.666504V0.666504Z" fill="white"/>
</g>
</svg>
