<svg width="16" height="17" viewBox="0 0 16 17" fill="none" xmlns="http://www.w3.org/2000/svg">
<g id="Profile">
<g id="Person">
<g id="Vector">
<path fill-rule="evenodd" clip-rule="evenodd" d="M8.00006 2.66659C6.71139 2.66659 5.66672 3.71125 5.66672 4.99992C5.66672 6.28858 6.71139 7.33325 8.00006 7.33325C9.28872 7.33325 10.3334 6.28858 10.3334 4.99992C10.3334 3.71125 9.28872 2.66659 8.00006 2.66659ZM4.33339 4.99992C4.33339 2.97487 5.97501 1.33325 8.00006 1.33325C10.0251 1.33325 11.6667 2.97487 11.6667 4.99992C11.6667 7.02496 10.0251 8.66659 8.00006 8.66659C5.97501 8.66659 4.33339 7.02496 4.33339 4.99992Z" fill="white"/>
<path fill-rule="evenodd" clip-rule="evenodd" d="M4.06943 10.6666C3.60722 10.6666 3.24595 10.8916 3.0993 11.215C2.89632 11.6625 2.71252 12.1954 2.66915 12.7007C2.64976 12.9266 2.74395 13.0931 2.87374 13.1737C3.55984 13.5999 5.14965 14.3333 8.00006 14.3333C10.8505 14.3333 12.4403 13.5999 13.1264 13.1737C13.2562 13.0931 13.3504 12.9266 13.331 12.7007C13.2876 12.1954 13.1038 11.6625 12.9008 11.215C12.7542 10.8916 12.3929 10.6666 11.9307 10.6666H4.06943ZM1.88501 10.6643C2.29031 9.77063 3.19533 9.33325 4.06943 9.33325H11.9307C12.8048 9.33325 13.7098 9.77063 14.1151 10.6643C14.3479 11.1776 14.5977 11.8676 14.6594 12.5867C14.7156 13.2415 14.4435 13.9252 13.83 14.3063C12.9276 14.8668 11.0931 15.6666 8.00006 15.6666C4.90699 15.6666 3.07253 14.8668 2.17017 14.3063C1.55666 13.9252 1.2845 13.2415 1.3407 12.5867C1.40242 11.8676 1.65222 11.1776 1.88501 10.6643Z" fill="white"/>
</g>
</g>
</g>
</svg>
