<svg width="16" height="17" viewBox="0 0 16 17" fill="none" xmlns="http://www.w3.org/2000/svg">
<g id="like">
<path id="shape (Stroke)" fill-rule="evenodd" clip-rule="evenodd" d="M9.45458 2.66659C9.36156 2.66659 9.27534 2.71603 9.2283 2.79663L9.2242 2.80365L6.16671 7.76042V14.3333H11.8906C12.0134 14.3333 12.1196 14.248 12.1462 14.1283L12.1486 14.1179L13.8485 7.4781C13.8797 7.31716 13.7563 7.16659 13.5914 7.16659H11C10.5659 7.16659 10.1266 7.02154 9.80684 6.7094C9.47062 6.38125 9.31475 5.9113 9.41478 5.40499L9.89402 2.97928C9.92601 2.81733 9.80207 2.66659 9.63712 2.66659H9.45458ZM4.83337 14.3333V8.23801H2.47106C2.32727 8.23801 2.21028 8.35403 2.20916 8.49799C2.20916 8.49798 2.20916 8.49799 2.20916 8.49799L2.16672 14.0694C2.1656 14.2147 2.28315 14.3333 2.42856 14.3333H4.83337ZM5.12797 6.90468L8.08142 2.11658C8.3683 1.63148 8.89019 1.33325 9.45458 1.33325H9.63712C10.6423 1.33325 11.3969 2.25164 11.2021 3.2377L10.7228 5.66341C10.7143 5.70658 10.7198 5.7262 10.7212 5.7305C10.7226 5.7353 10.7259 5.74328 10.7381 5.75523C10.766 5.78244 10.8491 5.83325 11 5.83325H13.5914C14.612 5.83325 15.37 6.7785 15.1486 7.77466L15.1463 7.78506L13.4452 14.4293C13.2786 15.153 12.6342 15.6666 11.8906 15.6666H2.42856C1.54286 15.6666 0.826633 14.945 0.833422 14.0592C0.833422 14.0593 0.833422 14.0592 0.833422 14.0592L0.875871 8.48781C0.882588 7.61162 1.59473 6.90468 2.47106 6.90468H5.12797Z" fill="#03CEA4"/>
</g>
</svg>
