<svg width="20" height="20" viewBox="0 0 20 20" fill="none" xmlns="http://www.w3.org/2000/svg">
<g id="Star/outline">
<path id="Star (Stroke)" fill-rule="evenodd" clip-rule="evenodd" d="M8.47451 1.83459C9.05346 0.499472 10.9469 0.49947 11.5258 1.83459L13.2772 5.87335L17.6594 6.29093C19.1081 6.42898 19.6932 8.2297 18.6023 9.19289L15.3025 12.1066L16.2595 16.4034C16.5759 17.8238 15.0441 18.9367 13.7909 18.1969L10.0002 15.9589L6.20938 18.1969C4.95623 18.9367 3.42444 17.8238 3.74082 16.4034L4.69787 12.1066L1.39798 9.19289C0.307114 8.2297 0.892204 6.42898 2.34089 6.29093L6.72317 5.87335L8.47451 1.83459ZM11.7515 6.53492L10.0002 2.49617L8.24882 6.53492C8.00786 7.09059 7.48384 7.47131 6.88091 7.52877L2.49863 7.94635L5.79852 10.86C6.25254 11.2609 6.45269 11.8769 6.32102 12.4681L5.36396 16.7649L9.15475 14.5269C9.6763 14.219 10.324 14.219 10.8456 14.5269L14.6364 16.7649L13.6793 12.4681C13.5476 11.8769 13.7478 11.2609 14.2018 10.86L17.5017 7.94635L13.1194 7.52877C12.5165 7.47131 11.9925 7.09059 11.7515 6.53492Z" fill="#424551"/>
</g>
</svg>
