<svg width="20" height="20" viewBox="0 0 20 20" fill="none" xmlns="http://www.w3.org/2000/svg">
<path fill-rule="evenodd" clip-rule="evenodd" d="M8.47444 1.83459C9.05339 0.499472 10.9468 0.49947 11.5257 1.83459L13.2771 5.87335L17.6594 6.29093C19.108 6.42898 19.6931 8.2297 18.6023 9.19289L15.3024 12.1066L16.2594 16.4034C16.5758 17.8238 15.044 18.9367 13.7909 18.1969L10.0001 15.9589L6.2093 18.1969C4.95615 18.9367 3.42436 17.8238 3.74074 16.4034L4.6978 12.1066L1.39791 9.19289C0.30704 8.2297 0.89213 6.42898 2.34081 6.29093L6.72309 5.87335L8.47444 1.83459ZM11.7514 6.53492L10.0001 2.49617L8.24874 6.53492C8.00779 7.09059 7.48377 7.47131 6.88084 7.52877L2.49856 7.94635L5.79845 10.86C6.25246 11.2609 6.45262 11.8769 6.32094 12.4681L5.36389 16.7649L9.15467 14.5269C9.67623 14.219 10.3239 14.219 10.8455 14.5269L14.6363 16.7649L13.6792 12.4681C13.5476 11.8769 13.7477 11.2609 14.2017 10.86L17.5016 7.94635L13.1193 7.52877C12.5164 7.47131 11.9924 7.09059 11.7514 6.53492Z" fill="white"/>
</svg>
