<svg width="20" height="20" viewBox="0 0 20 20" fill="none" xmlns="http://www.w3.org/2000/svg">
<g id="Profile">
<g id="Person">
<g id="Vector">
<path fill-rule="evenodd" clip-rule="evenodd" d="M10.0001 2.70841C8.3893 2.70841 7.08346 4.01425 7.08346 5.62508C7.08346 7.23591 8.3893 8.54175 10.0001 8.54175C11.611 8.54175 12.9168 7.23591 12.9168 5.62508C12.9168 4.01425 11.611 2.70841 10.0001 2.70841ZM5.4168 5.62508C5.4168 3.09378 7.46883 1.04175 10.0001 1.04175C12.5314 1.04175 14.5835 3.09378 14.5835 5.62508C14.5835 8.15639 12.5314 10.2084 10.0001 10.2084C7.46883 10.2084 5.4168 8.15639 5.4168 5.62508Z" fill="#424551"/>
<path fill-rule="evenodd" clip-rule="evenodd" d="M5.08685 12.7084C4.50908 12.7084 4.05749 12.9897 3.87418 13.3939C3.62046 13.9534 3.39071 14.6194 3.3365 15.2511C3.31226 15.5334 3.43 15.7415 3.59223 15.8423C4.44986 16.3751 6.43712 17.2917 10.0001 17.2917C13.5631 17.2917 15.5504 16.3751 16.408 15.8423C16.5703 15.7415 16.688 15.5334 16.6638 15.2511C16.6095 14.6194 16.3798 13.9534 16.1261 13.3939C15.9428 12.9897 15.4912 12.7084 14.9134 12.7084H5.08685ZM2.35632 12.7055C2.86294 11.5885 3.99422 11.0417 5.08685 11.0417H14.9134C16.006 11.0417 17.1373 11.5885 17.6439 12.7055C17.9349 13.3472 18.2472 14.2097 18.3243 15.1085C18.3946 15.9271 18.0544 16.7817 17.2875 17.2581C16.1595 17.9587 13.8665 18.9584 10.0001 18.9584C6.1338 18.9584 3.84072 17.9587 2.71277 17.2581C1.94588 16.7817 1.60568 15.9271 1.67594 15.1085C1.75308 14.2097 2.06533 13.3472 2.35632 12.7055Z" fill="#424551"/>
</g>
</g>
</g>
</svg>
