<svg width="20" height="20" viewBox="0 0 20 20" fill="none" xmlns="http://www.w3.org/2000/svg">
<g id="bag">
<path id="Vector (Stroke)" fill-rule="evenodd" clip-rule="evenodd" d="M4.99984 2.70841C4.07936 2.70841 3.33317 3.45461 3.33317 4.37508L3.33317 15.6251C3.33317 16.5456 4.07936 17.2917 4.99984 17.2917H14.9998C15.9203 17.2917 16.6665 16.5456 16.6665 15.6251V4.37509C16.6665 3.45462 15.9203 2.70843 14.9998 2.70843L4.99984 2.70841ZM1.6665 4.37508C1.6665 2.53413 3.15889 1.04174 4.99984 1.04175L14.9998 1.04176C16.8408 1.04176 18.3332 2.53415 18.3332 4.37509V15.6251C18.3332 17.466 16.8408 18.9584 14.9998 18.9584H4.99984C3.15889 18.9584 1.6665 17.466 1.6665 15.6251L1.6665 4.37508ZM13.7498 4.16673C14.2101 4.16673 14.5832 4.53982 14.5832 5.00006L14.5832 6.25006C14.5832 8.78137 12.5311 10.8334 9.99984 10.8334C7.46853 10.8334 5.4165 8.78137 5.4165 6.25006V5.00006C5.4165 4.53982 5.7896 4.16673 6.24984 4.16673C6.71007 4.16673 7.08317 4.53982 7.08317 5.00006V6.25006C7.08317 7.86089 8.38901 9.16673 9.99984 9.16673C11.6107 9.16673 12.9165 7.86089 12.9165 6.25006L12.9165 5.00006C12.9165 4.53982 13.2896 4.16673 13.7498 4.16673Z" fill="white"/>
</g>
</svg>
