<svg width="16" height="15" viewBox="0 0 16 15" fill="none" xmlns="http://www.w3.org/2000/svg">
<path fill-rule="evenodd" clip-rule="evenodd" d="M2.5944 2.00543C2.52929 2.00052 2.43894 2.00008 2.2695 2.00008H1.16667C0.798477 2.00008 0.5 1.70161 0.5 1.33342C0.5 0.965228 0.798477 0.666751 1.16667 0.666751H2.2695C2.27578 0.666751 2.28207 0.66675 2.28835 0.66675C2.43146 0.666732 2.57315 0.666715 2.69458 0.675864C2.82971 0.686045 2.9867 0.709959 3.14911 0.782405C3.37767 0.884362 3.57293 1.04859 3.71254 1.25631C3.81174 1.4039 3.8622 1.55447 3.89538 1.68586C3.9252 1.80392 3.94946 1.94352 3.97397 2.08452C3.97504 2.09071 3.97612 2.0969 3.9772 2.10309L4.13605 3.01647L12.812 3.27329C13.152 3.28335 13.4458 3.29203 13.6878 3.31868C13.9436 3.34685 14.1971 3.39981 14.4404 3.5294C14.809 3.72576 15.1068 4.03257 15.2922 4.4068C15.4145 4.65377 15.46 4.90879 15.4805 5.16527C15.5 5.40792 15.5 5.70186 15.5 6.04199V6.09115C15.5 6.4108 15.5 6.68808 15.4821 6.91801C15.4631 7.16184 15.4213 7.40404 15.3095 7.64135C15.1395 8.00255 14.8653 8.30461 14.5221 8.50864C14.2967 8.64268 14.0597 8.70769 13.8188 8.75008C13.5917 8.79005 13.3157 8.81675 12.9975 8.84752L6.50826 9.47552C6.18213 9.50709 5.89956 9.53445 5.66381 9.53859C5.41403 9.54299 5.1636 9.52359 4.91219 9.43123C4.53514 9.29272 4.20854 9.04388 3.97491 8.71713C3.81913 8.49925 3.73395 8.26295 3.67188 8.02097C3.6133 7.79258 3.56467 7.51289 3.50854 7.19009L2.66358 2.33155C2.63455 2.16461 2.61864 2.07567 2.60265 2.01236C2.60208 2.01011 2.60153 2.00798 2.601 2.00595C2.59891 2.00578 2.59672 2.0056 2.5944 2.00543ZM4.36923 4.35729L4.81796 6.93748C4.8795 7.29131 4.9195 7.5185 4.96341 7.68971C5.00529 7.853 5.03842 7.91212 5.05953 7.94164C5.1374 8.05056 5.24627 8.1335 5.37195 8.17967C5.40602 8.19218 5.47181 8.20843 5.64036 8.20547C5.81708 8.20236 6.04674 8.18062 6.40421 8.14602L12.8451 7.52271C13.1941 7.48894 13.4178 7.46681 13.5877 7.43692C13.7495 7.40845 13.8099 7.3809 13.8407 7.36258C13.9551 7.29457 14.0465 7.19389 14.1032 7.07348C14.1184 7.04106 14.1401 6.97829 14.1528 6.81449C14.1662 6.64254 14.1667 6.41767 14.1667 6.06709C14.1667 5.69475 14.1662 5.45484 14.1515 5.27196C14.1374 5.09696 14.1136 5.03135 14.0974 4.99862C14.0356 4.87388 13.9363 4.77161 13.8135 4.70616C13.7812 4.68898 13.7164 4.66322 13.5418 4.644C13.3595 4.62392 13.1197 4.61632 12.7475 4.6053L4.36923 4.35729Z" fill="white"/>
<path fill-rule="evenodd" clip-rule="evenodd" d="M6.16667 11.6667C5.79848 11.6667 5.5 11.9652 5.5 12.3334C5.5 12.7016 5.79848 13.0001 6.16667 13.0001C6.53486 13.0001 6.83333 12.7016 6.83333 12.3334C6.83333 11.9652 6.53486 11.6667 6.16667 11.6667ZM4.16667 12.3334C4.16667 11.2288 5.0621 10.3334 6.16667 10.3334C7.27124 10.3334 8.16667 11.2288 8.16667 12.3334C8.16667 13.438 7.27124 14.3334 6.16667 14.3334C5.0621 14.3334 4.16667 13.438 4.16667 12.3334Z" fill="white"/>
<path fill-rule="evenodd" clip-rule="evenodd" d="M12.5 11.6667C12.1318 11.6667 11.8333 11.9652 11.8333 12.3334C11.8333 12.7016 12.1318 13.0001 12.5 13.0001C12.8682 13.0001 13.1667 12.7016 13.1667 12.3334C13.1667 11.9652 12.8682 11.6667 12.5 11.6667ZM10.5 12.3334C10.5 11.2288 11.3954 10.3334 12.5 10.3334C13.6046 10.3334 14.5 11.2288 14.5 12.3334C14.5 13.438 13.6046 14.3334 12.5 14.3334C11.3954 14.3334 10.5 13.438 10.5 12.3334Z" fill="white"/>
</svg>
