<svg width="16" height="16" viewBox="0 0 16 16" fill="none" xmlns="http://www.w3.org/2000/svg">
<g id="YouTube">
<path id="Subtract" fill-rule="evenodd" clip-rule="evenodd" d="M14.2602 2.74255C14.9455 2.92712 15.4859 3.4674 15.6703 4.15282C16.0131 5.40477 15.9999 8.01438 15.9999 8.01438C15.9999 8.01438 15.9999 10.6107 15.6705 11.8627C15.4859 12.548 14.9456 13.0884 14.2602 13.2729C13.0081 13.6025 7.99997 13.6025 7.99997 13.6025C7.99997 13.6025 3.00487 13.6025 1.73974 13.2598C1.05432 13.0753 0.514036 12.5349 0.329466 11.8496C0 10.6107 0 8.00119 0 8.00119C0 8.00119 0 5.40477 0.329466 4.15282C0.513914 3.46752 1.0675 2.91394 1.73962 2.72949C2.99169 2.3999 7.99984 2.3999 7.99984 2.3999C7.99984 2.3999 13.0081 2.3999 14.2602 2.74255ZM10.5699 8.00121L6.40525 10.3999V5.60253L10.5699 8.00121Z" fill="white"/>
</g>
</svg>
